solid OpenSCAD_Model
  facet normal -2.22045e-16 -1.57009e-16 1
    outer loop
      vertex -10 3.5 19.5
      vertex -10 -3.5 19.5
      vertex -4.32987e-15 -3.5 19.5
    endloop
  endfacet
  facet normal -2.22045e-16 -1.57009e-16 1
    outer loop
      vertex -4.32987e-15 3.5 19.5
      vertex -10 3.5 19.5
      vertex -4.32987e-15 -3.5 19.5
    endloop
  endfacet
  facet normal 3.48631e-32 -1 -1.57009e-16
    outer loop
      vertex -4.32987e-15 -3.5 19.5
      vertex -10 -3.5 19.5
      vertex -10 -3.5 14.5
    endloop
  endfacet
  facet normal 3.48631e-32 -1 -1.57009e-16
    outer loop
      vertex -3.21965e-15 -3.5 14.5
      vertex -4.32987e-15 -3.5 19.5
      vertex -10 -3.5 14.5
    endloop
  endfacet
  facet normal -1 3.48631e-32 -2.22045e-16
    outer loop
      vertex -10 -3.5 19.5
      vertex -10 3.5 19.5
      vertex -10 -3.5 14.5
    endloop
  endfacet
  facet normal -1 3.48631e-32 -2.22045e-16
    outer loop
      vertex -10 -3.5 14.5
      vertex -10 3.5 19.5
      vertex -10 3.5 14.5
    endloop
  endfacet
  facet normal -3.48631e-32 1 1.57009e-16
    outer loop
      vertex -10 3.5 19.5
      vertex -4.32987e-15 3.5 19.5
      vertex -10 3.5 14.5
    endloop
  endfacet
  facet normal -3.48631e-32 1 1.57009e-16
    outer loop
      vertex -10 3.5 14.5
      vertex -4.32987e-15 3.5 19.5
      vertex -3.21965e-15 3.5 14.5
    endloop
  endfacet
  facet normal -1 3.48631e-32 -2.22045e-16
    outer loop
      vertex -4.44089e-15 -3.14018e-15 20
      vertex -4.34385e-15 4.15823 19.563
      vertex -4.34385e-15 -4.15823 19.563
    endloop
  endfacet
  facet normal -1 3.48631e-32 -2.22045e-16
    outer loop
      vertex -4.32987e-15 3.5 19.5
      vertex -4.34385e-15 4.15823 19.563
      vertex -4.05696e-15 8.13473 18.2709
    endloop
  endfacet
  facet normal -1 3.48631e-32 -2.22045e-16
    outer loop
      vertex -2.63702e-15 -5.28758 11.8761
      vertex -3.21965e-15 -3.5 14.5
      vertex -2.8235e-15 -2.70285 12.7159
    endloop
  endfacet
  facet normal -1 3.48631e-32 -2.22045e-16
    outer loop
      vertex 2.8235e-15 2.70285 -12.7159
      vertex 4.34385e-15 4.15823 -19.563
      vertex 2.88658e-15 2.04112e-15 -13
    endloop
  endfacet
  facet normal -1 3.48631e-32 -2.22045e-16
    outer loop
      vertex 2.63702e-15 5.28758 -11.8761
      vertex 4.34385e-15 4.15823 -19.563
      vertex 2.8235e-15 2.70285 -12.7159
    endloop
  endfacet
  facet normal -1 3.48631e-32 -2.22045e-16
    outer loop
      vertex -3.21965e-15 3.5 14.5
      vertex -1.37231e-15 19.0211 6.18034
      vertex -4.642e-16 19.8904 2.09057
    endloop
  endfacet
  facet normal -1 3.48631e-32 -2.22045e-16
    outer loop
      vertex -1.44329e-15 11.2583 6.5
      vertex -4.642e-16 19.8904 2.09057
      vertex 4.642e-16 19.8904 -2.09057
    endloop
  endfacet
  facet normal -1 3.48631e-32 -2.22045e-16
    outer loop
      vertex -3.0173e-16 12.9288 1.35887
      vertex 4.642e-16 19.8904 -2.09057
      vertex 1.37231e-15 19.0211 -6.18034
    endloop
  endfacet
  facet normal -1 3.48631e-32 -2.22045e-16
    outer loop
      vertex 3.0173e-16 12.9288 -1.35887
      vertex 1.37231e-15 19.0211 -6.18034
      vertex 2.22045e-15 17.3205 -10
    endloop
  endfacet
  facet normal -1 3.48631e-32 -2.22045e-16
    outer loop
      vertex 1.44329e-15 11.2583 -6.5
      vertex 2.22045e-15 17.3205 -10
      vertex 2.97154e-15 14.8629 -13.3826
    endloop
  endfacet
  facet normal -1 3.48631e-32 -2.22045e-16
    outer loop
      vertex 1.9315e-15 9.66088 -8.6987
      vertex 2.97154e-15 14.8629 -13.3826
      vertex 3.59276e-15 11.7557 -16.1803
    endloop
  endfacet
  facet normal -1 3.48631e-32 -2.22045e-16
    outer loop
      vertex 2.33529e-15 7.64121 -10.5172
      vertex 3.59276e-15 11.7557 -16.1803
      vertex 4.05696e-15 8.13473 -18.2709
    endloop
  endfacet
  facet normal -1 3.48631e-32 -2.22045e-16
    outer loop
      vertex 2.63702e-15 5.28758 -11.8761
      vertex 4.05696e-15 8.13473 -18.2709
      vertex 4.34385e-15 4.15823 -19.563
    endloop
  endfacet
  facet normal -1 3.48631e-32 -2.22045e-16
    outer loop
      vertex 2.88658e-15 2.04112e-15 -13
      vertex 4.34385e-15 4.15823 -19.563
      vertex 4.44089e-15 3.14018e-15 -20
    endloop
  endfacet
  facet normal -1 3.48631e-32 -2.22045e-16
    outer loop
      vertex 2.8235e-15 -2.70285 -12.7159
      vertex 4.44089e-15 3.14018e-15 -20
      vertex 4.34385e-15 -4.15823 -19.563
    endloop
  endfacet
  facet normal -1 3.48631e-32 -2.22045e-16
    outer loop
      vertex 2.63702e-15 -5.28758 -11.8761
      vertex 4.34385e-15 -4.15823 -19.563
      vertex 4.05696e-15 -8.13473 -18.2709
    endloop
  endfacet
  facet normal -1 3.48631e-32 -2.22045e-16
    outer loop
      vertex 1.9315e-15 -9.66088 -8.6987
      vertex 4.05696e-15 -8.13473 -18.2709
      vertex 3.59276e-15 -11.7557 -16.1803
    endloop
  endfacet
  facet normal -1 3.48631e-32 -2.22045e-16
    outer loop
      vertex 1.44329e-15 -11.2583 -6.5
      vertex 3.59276e-15 -11.7557 -16.1803
      vertex 2.97154e-15 -14.8629 -13.3826
    endloop
  endfacet
  facet normal -1 3.48631e-32 -2.22045e-16
    outer loop
      vertex 3.0173e-16 -12.9288 -1.35887
      vertex 2.97154e-15 -14.8629 -13.3826
      vertex 2.22045e-15 -17.3205 -10
    endloop
  endfacet
  facet normal -1 3.48631e-32 -2.22045e-16
    outer loop
      vertex -8.92002e-16 -12.3637 4.01722
      vertex 2.22045e-15 -17.3205 -10
      vertex 1.37231e-15 -19.0211 -6.18034
    endloop
  endfacet
  facet normal -1 3.48631e-32 -2.22045e-16
    outer loop
      vertex -4.34385e-15 -4.15823 19.563
      vertex 1.37231e-15 -19.0211 -6.18034
      vertex 4.642e-16 -19.8904 -2.09057
    endloop
  endfacet
  facet normal -1 3.48631e-32 -2.22045e-16
    outer loop
      vertex -4.34385e-15 -4.15823 19.563
      vertex 4.642e-16 -19.8904 -2.09057
      vertex -4.642e-16 -19.8904 2.09057
    endloop
  endfacet
  facet normal -1 3.48631e-32 -2.22045e-16
    outer loop
      vertex -4.34385e-15 -4.15823 19.563
      vertex -4.642e-16 -19.8904 2.09057
      vertex -1.37231e-15 -19.0211 6.18034
    endloop
  endfacet
  facet normal -1 3.48631e-32 -2.22045e-16
    outer loop
      vertex -4.34385e-15 -4.15823 19.563
      vertex -1.37231e-15 -19.0211 6.18034
      vertex -2.22045e-15 -17.3205 10
    endloop
  endfacet
  facet normal -1 3.48631e-32 -2.22045e-16
    outer loop
      vertex -4.34385e-15 -4.15823 19.563
      vertex -2.22045e-15 -17.3205 10
      vertex -2.97154e-15 -14.8629 13.3826
    endloop
  endfacet
  facet normal -1 3.48631e-32 -2.22045e-16
    outer loop
      vertex -4.34385e-15 -4.15823 19.563
      vertex -2.97154e-15 -14.8629 13.3826
      vertex -3.59276e-15 -11.7557 16.1803
    endloop
  endfacet
  facet normal -1 3.48631e-32 -2.22045e-16
    outer loop
      vertex -4.34385e-15 -4.15823 19.563
      vertex -3.59276e-15 -11.7557 16.1803
      vertex -4.05696e-15 -8.13473 18.2709
    endloop
  endfacet
  facet normal -1 3.48631e-32 -2.22045e-16
    outer loop
      vertex -4.34385e-15 -4.15823 19.563
      vertex -4.34385e-15 4.15823 19.563
      vertex -4.32987e-15 3.5 19.5
    endloop
  endfacet
  facet normal -1 3.48631e-32 -2.22045e-16
    outer loop
      vertex -3.21965e-15 -3.5 14.5
      vertex -4.34385e-15 -4.15823 19.563
      vertex -4.32987e-15 -3.5 19.5
    endloop
  endfacet
  facet normal -1 3.48631e-32 -2.22045e-16
    outer loop
      vertex -4.34385e-15 -4.15823 19.563
      vertex -4.32987e-15 3.5 19.5
      vertex -4.32987e-15 -3.5 19.5
    endloop
  endfacet
  facet normal -1 3.48631e-32 -2.22045e-16
    outer loop
      vertex -2.63702e-15 -5.28758 11.8761
      vertex -4.34385e-15 -4.15823 19.563
      vertex -3.21965e-15 -3.5 14.5
    endloop
  endfacet
  facet normal -1 3.48631e-32 -2.22045e-16
    outer loop
      vertex -3.0173e-16 12.9288 1.35887
      vertex 1.37231e-15 19.0211 -6.18034
      vertex 3.0173e-16 12.9288 -1.35887
    endloop
  endfacet
  facet normal -1 3.48631e-32 -2.22045e-16
    outer loop
      vertex -3.21965e-15 3.5 14.5
      vertex -2.33529e-15 7.64121 10.5172
      vertex -2.63702e-15 5.28758 11.8761
    endloop
  endfacet
  facet normal -1 3.48631e-32 -2.22045e-16
    outer loop
      vertex -2.33529e-15 -7.64121 10.5172
      vertex -4.34385e-15 -4.15823 19.563
      vertex -2.63702e-15 -5.28758 11.8761
    endloop
  endfacet
  facet normal -1 3.48631e-32 -2.22045e-16
    outer loop
      vertex -1.9315e-15 -9.66088 8.6987
      vertex -4.34385e-15 -4.15823 19.563
      vertex -2.33529e-15 -7.64121 10.5172
    endloop
  endfacet
  facet normal -1 3.48631e-32 -2.22045e-16
    outer loop
      vertex -8.92002e-16 -12.3637 4.01722
      vertex 1.37231e-15 -19.0211 -6.18034
      vertex -1.44329e-15 -11.2583 6.5
    endloop
  endfacet
  facet normal -1 3.48631e-32 -2.22045e-16
    outer loop
      vertex -4.34385e-15 -4.15823 19.563
      vertex -1.9315e-15 -9.66088 8.6987
      vertex -1.44329e-15 -11.2583 6.5
    endloop
  endfacet
  facet normal -1 3.48631e-32 -2.22045e-16
    outer loop
      vertex -4.34385e-15 -4.15823 19.563
      vertex -1.44329e-15 -11.2583 6.5
      vertex 1.37231e-15 -19.0211 -6.18034
    endloop
  endfacet
  facet normal -1 3.48631e-32 -2.22045e-16
    outer loop
      vertex -3.0173e-16 -12.9288 1.35887
      vertex 2.22045e-15 -17.3205 -10
      vertex -8.92002e-16 -12.3637 4.01722
    endloop
  endfacet
  facet normal -1 3.48631e-32 -2.22045e-16
    outer loop
      vertex 3.0173e-16 -12.9288 -1.35887
      vertex 2.22045e-15 -17.3205 -10
      vertex -3.0173e-16 -12.9288 1.35887
    endloop
  endfacet
  facet normal -1 3.48631e-32 -2.22045e-16
    outer loop
      vertex 8.92002e-16 -12.3637 -4.01722
      vertex 2.97154e-15 -14.8629 -13.3826
      vertex 3.0173e-16 -12.9288 -1.35887
    endloop
  endfacet
  facet normal -1 3.48631e-32 -2.22045e-16
    outer loop
      vertex 1.44329e-15 -11.2583 -6.5
      vertex 2.97154e-15 -14.8629 -13.3826
      vertex 8.92002e-16 -12.3637 -4.01722
    endloop
  endfacet
  facet normal -1 3.48631e-32 -2.22045e-16
    outer loop
      vertex 2.33529e-15 -7.64121 -10.5172
      vertex 4.05696e-15 -8.13473 -18.2709
      vertex 1.9315e-15 -9.66088 -8.6987
    endloop
  endfacet
  facet normal -1 3.48631e-32 -2.22045e-16
    outer loop
      vertex 2.63702e-15 -5.28758 -11.8761
      vertex 4.05696e-15 -8.13473 -18.2709
      vertex 2.33529e-15 -7.64121 -10.5172
    endloop
  endfacet
  facet normal -1 3.48631e-32 -2.22045e-16
    outer loop
      vertex 1.9315e-15 -9.66088 -8.6987
      vertex 3.59276e-15 -11.7557 -16.1803
      vertex 1.44329e-15 -11.2583 -6.5
    endloop
  endfacet
  facet normal -1 3.48631e-32 -2.22045e-16
    outer loop
      vertex -3.21965e-15 3.5 14.5
      vertex -4.642e-16 19.8904 2.09057
      vertex -2.33529e-15 7.64121 10.5172
    endloop
  endfacet
  facet normal -1 3.48631e-32 -2.22045e-16
    outer loop
      vertex 2.33529e-15 7.64121 -10.5172
      vertex 4.05696e-15 8.13473 -18.2709
      vertex 2.63702e-15 5.28758 -11.8761
    endloop
  endfacet
  facet normal -1 3.48631e-32 -2.22045e-16
    outer loop
      vertex -1.44329e-15 11.2583 6.5
      vertex 4.642e-16 19.8904 -2.09057
      vertex -8.92002e-16 12.3637 4.01722
    endloop
  endfacet
  facet normal -1 3.48631e-32 -2.22045e-16
    outer loop
      vertex -3.21965e-15 3.5 14.5
      vertex -2.63702e-15 5.28758 11.8761
      vertex -2.8235e-15 2.70285 12.7159
    endloop
  endfacet
  facet normal -1 3.48631e-32 -2.22045e-16
    outer loop
      vertex 8.92002e-16 12.3637 -4.01722
      vertex 2.22045e-15 17.3205 -10
      vertex 1.44329e-15 11.2583 -6.5
    endloop
  endfacet
  facet normal -1 3.48631e-32 -2.22045e-16
    outer loop
      vertex 3.0173e-16 12.9288 -1.35887
      vertex 2.22045e-15 17.3205 -10
      vertex 8.92002e-16 12.3637 -4.01722
    endloop
  endfacet
  facet normal -1 3.48631e-32 -2.22045e-16
    outer loop
      vertex -3.21965e-15 3.5 14.5
      vertex -2.8235e-15 2.70285 12.7159
      vertex -2.88658e-15 -2.04112e-15 13
    endloop
  endfacet
  facet normal -1 3.48631e-32 -2.22045e-16
    outer loop
      vertex -8.92002e-16 12.3637 4.01722
      vertex 4.642e-16 19.8904 -2.09057
      vertex -3.0173e-16 12.9288 1.35887
    endloop
  endfacet
  facet normal -1 3.48631e-32 -2.22045e-16
    outer loop
      vertex 1.44329e-15 11.2583 -6.5
      vertex 2.97154e-15 14.8629 -13.3826
      vertex 1.9315e-15 9.66088 -8.6987
    endloop
  endfacet
  facet normal -1 3.48631e-32 -2.22045e-16
    outer loop
      vertex -1.9315e-15 9.66088 8.6987
      vertex -4.642e-16 19.8904 2.09057
      vertex -1.44329e-15 11.2583 6.5
    endloop
  endfacet
  facet normal -1 3.48631e-32 -2.22045e-16
    outer loop
      vertex -3.21965e-15 3.5 14.5
      vertex -2.88658e-15 -2.04112e-15 13
      vertex -2.8235e-15 -2.70285 12.7159
    endloop
  endfacet
  facet normal -1 3.48631e-32 -2.22045e-16
    outer loop
      vertex -2.33529e-15 7.64121 10.5172
      vertex -4.642e-16 19.8904 2.09057
      vertex -1.9315e-15 9.66088 8.6987
    endloop
  endfacet
  facet normal -1 3.48631e-32 -2.22045e-16
    outer loop
      vertex -3.21965e-15 3.5 14.5
      vertex -2.8235e-15 -2.70285 12.7159
      vertex -3.21965e-15 -3.5 14.5
    endloop
  endfacet
  facet normal -1 3.48631e-32 -2.22045e-16
    outer loop
      vertex 1.9315e-15 9.66088 -8.6987
      vertex 3.59276e-15 11.7557 -16.1803
      vertex 2.33529e-15 7.64121 -10.5172
    endloop
  endfacet
  facet normal -1 3.48631e-32 -2.22045e-16
    outer loop
      vertex -4.32987e-15 3.5 19.5
      vertex -4.05696e-15 8.13473 18.2709
      vertex -3.59276e-15 11.7557 16.1803
    endloop
  endfacet
  facet normal -1 3.48631e-32 -2.22045e-16
    outer loop
      vertex -4.32987e-15 3.5 19.5
      vertex -3.59276e-15 11.7557 16.1803
      vertex -2.97154e-15 14.8629 13.3826
    endloop
  endfacet
  facet normal -1 3.48631e-32 -2.22045e-16
    outer loop
      vertex -4.32987e-15 3.5 19.5
      vertex -2.97154e-15 14.8629 13.3826
      vertex -2.22045e-15 17.3205 10
    endloop
  endfacet
  facet normal -1 3.48631e-32 -2.22045e-16
    outer loop
      vertex -4.32987e-15 3.5 19.5
      vertex -2.22045e-15 17.3205 10
      vertex -1.37231e-15 19.0211 6.18034
    endloop
  endfacet
  facet normal -1 3.48631e-32 -2.22045e-16
    outer loop
      vertex -4.32987e-15 3.5 19.5
      vertex -1.37231e-15 19.0211 6.18034
      vertex -3.21965e-15 3.5 14.5
    endloop
  endfacet
  facet normal -1 3.48631e-32 -2.22045e-16
    outer loop
      vertex 2.88658e-15 2.04112e-15 -13
      vertex 4.44089e-15 3.14018e-15 -20
      vertex 2.8235e-15 -2.70285 -12.7159
    endloop
  endfacet
  facet normal -1 3.48631e-32 -2.22045e-16
    outer loop
      vertex 2.8235e-15 -2.70285 -12.7159
      vertex 4.34385e-15 -4.15823 -19.563
      vertex 2.63702e-15 -5.28758 -11.8761
    endloop
  endfacet
  facet normal 2.22045e-16 1.57009e-16 -1
    outer loop
      vertex -10 -3.5 14.5
      vertex -10 3.5 14.5
      vertex -3.21965e-15 -3.5 14.5
    endloop
  endfacet
  facet normal 2.22045e-16 1.57009e-16 -1
    outer loop
      vertex -3.21965e-15 -3.5 14.5
      vertex -10 3.5 14.5
      vertex -3.21965e-15 3.5 14.5
    endloop
  endfacet
  facet normal -2.20828e-16 -0.104528 0.994522
    outer loop
      vertex 4 -3.14018e-15 20
      vertex -4.44089e-15 -3.14018e-15 20
      vertex -4.34385e-15 -4.15823 19.563
    endloop
  endfacet
  facet normal -2.20828e-16 -0.104528 0.994522
    outer loop
      vertex 4 -4.15823 19.563
      vertex 4 -3.14018e-15 20
      vertex -4.34385e-15 -4.15823 19.563
    endloop
  endfacet
  facet normal -2.11177e-16 -0.309017 0.951057
    outer loop
      vertex 4 -4.15823 19.563
      vertex -4.34385e-15 -4.15823 19.563
      vertex -4.05696e-15 -8.13473 18.2709
    endloop
  endfacet
  facet normal -2.11177e-16 -0.309017 0.951057
    outer loop
      vertex 4 -8.13473 18.2709
      vertex 4 -4.15823 19.563
      vertex -4.05696e-15 -8.13473 18.2709
    endloop
  endfacet
  facet normal -1.92296e-16 -0.5 0.866025
    outer loop
      vertex 4 -8.13473 18.2709
      vertex -4.05696e-15 -8.13473 18.2709
      vertex -3.59276e-15 -11.7557 16.1803
    endloop
  endfacet
  facet normal -1.92296e-16 -0.5 0.866025
    outer loop
      vertex 4 -11.7557 16.1803
      vertex 4 -8.13473 18.2709
      vertex -3.59276e-15 -11.7557 16.1803
    endloop
  endfacet
  facet normal -1.65011e-16 -0.669131 0.743145
    outer loop
      vertex 4 -11.7557 16.1803
      vertex -3.59276e-15 -11.7557 16.1803
      vertex -2.97154e-15 -14.8629 13.3826
    endloop
  endfacet
  facet normal -1.65011e-16 -0.669131 0.743145
    outer loop
      vertex 4 -14.8629 13.3826
      vertex 4 -11.7557 16.1803
      vertex -2.97154e-15 -14.8629 13.3826
    endloop
  endfacet
  facet normal -1.30515e-16 -0.809017 0.587785
    outer loop
      vertex 4 -14.8629 13.3826
      vertex -2.97154e-15 -14.8629 13.3826
      vertex -2.22045e-15 -17.3205 10
    endloop
  endfacet
  facet normal -1.30515e-16 -0.809017 0.587785
    outer loop
      vertex 4 -17.3205 10
      vertex 4 -14.8629 13.3826
      vertex -2.22045e-15 -17.3205 10
    endloop
  endfacet
  facet normal -9.03137e-17 -0.913545 0.406737
    outer loop
      vertex 4 -17.3205 10
      vertex -2.22045e-15 -17.3205 10
      vertex -1.37231e-15 -19.0211 6.18034
    endloop
  endfacet
  facet normal -9.03137e-17 -0.913545 0.406737
    outer loop
      vertex 4 -19.0211 6.18034
      vertex 4 -17.3205 10
      vertex -1.37231e-15 -19.0211 6.18034
    endloop
  endfacet
  facet normal -4.61657e-17 -0.978148 0.207912
    outer loop
      vertex 4 -19.0211 6.18034
      vertex -1.37231e-15 -19.0211 6.18034
      vertex -4.642e-16 -19.8904 2.09057
    endloop
  endfacet
  facet normal -4.61657e-17 -0.978148 0.207912
    outer loop
      vertex 4 -19.8904 2.09057
      vertex 4 -19.0211 6.18034
      vertex -4.642e-16 -19.8904 2.09057
    endloop
  endfacet
  facet normal 3.48631e-32 -1 -1.57009e-16
    outer loop
      vertex 4 -19.8904 2.09057
      vertex -4.642e-16 -19.8904 2.09057
      vertex 4.642e-16 -19.8904 -2.09057
    endloop
  endfacet
  facet normal 3.48631e-32 -1 -1.57009e-16
    outer loop
      vertex 4 -19.8904 -2.09057
      vertex 4 -19.8904 2.09057
      vertex 4.642e-16 -19.8904 -2.09057
    endloop
  endfacet
  facet normal 4.61657e-17 -0.978148 -0.207912
    outer loop
      vertex 4 -19.8904 -2.09057
      vertex 4.642e-16 -19.8904 -2.09057
      vertex 1.37231e-15 -19.0211 -6.18034
    endloop
  endfacet
  facet normal 4.61657e-17 -0.978148 -0.207912
    outer loop
      vertex 4 -19.0211 -6.18034
      vertex 4 -19.8904 -2.09057
      vertex 1.37231e-15 -19.0211 -6.18034
    endloop
  endfacet
  facet normal 9.03137e-17 -0.913545 -0.406737
    outer loop
      vertex 4 -19.0211 -6.18034
      vertex 1.37231e-15 -19.0211 -6.18034
      vertex 2.22045e-15 -17.3205 -10
    endloop
  endfacet
  facet normal 9.03137e-17 -0.913545 -0.406737
    outer loop
      vertex 4 -17.3205 -10
      vertex 4 -19.0211 -6.18034
      vertex 2.22045e-15 -17.3205 -10
    endloop
  endfacet
  facet normal 1.30515e-16 -0.809017 -0.587785
    outer loop
      vertex 4 -17.3205 -10
      vertex 2.22045e-15 -17.3205 -10
      vertex 2.97154e-15 -14.8629 -13.3826
    endloop
  endfacet
  facet normal 1.30515e-16 -0.809017 -0.587785
    outer loop
      vertex 4 -14.8629 -13.3826
      vertex 4 -17.3205 -10
      vertex 2.97154e-15 -14.8629 -13.3826
    endloop
  endfacet
  facet normal 1.65011e-16 -0.669131 -0.743145
    outer loop
      vertex 2.97154e-15 -14.8629 -13.3826
      vertex 3.59276e-15 -11.7557 -16.1803
      vertex 4 -14.8629 -13.3826
    endloop
  endfacet
  facet normal 1.65011e-16 -0.669131 -0.743145
    outer loop
      vertex 4 -14.8629 -13.3826
      vertex 3.59276e-15 -11.7557 -16.1803
      vertex 4 -11.7557 -16.1803
    endloop
  endfacet
  facet normal 1.92296e-16 -0.5 -0.866025
    outer loop
      vertex 3.59276e-15 -11.7557 -16.1803
      vertex 4.05696e-15 -8.13473 -18.2709
      vertex 4 -11.7557 -16.1803
    endloop
  endfacet
  facet normal 1.92296e-16 -0.5 -0.866025
    outer loop
      vertex 4 -11.7557 -16.1803
      vertex 4.05696e-15 -8.13473 -18.2709
      vertex 4 -8.13473 -18.2709
    endloop
  endfacet
  facet normal 2.11177e-16 -0.309017 -0.951057
    outer loop
      vertex 4.05696e-15 -8.13473 -18.2709
      vertex 4.34385e-15 -4.15823 -19.563
      vertex 4 -8.13473 -18.2709
    endloop
  endfacet
  facet normal 2.11177e-16 -0.309017 -0.951057
    outer loop
      vertex 4 -8.13473 -18.2709
      vertex 4.34385e-15 -4.15823 -19.563
      vertex 4 -4.15823 -19.563
    endloop
  endfacet
  facet normal 2.20828e-16 -0.104528 -0.994522
    outer loop
      vertex 4.34385e-15 -4.15823 -19.563
      vertex 4.44089e-15 3.14018e-15 -20
      vertex 4 -4.15823 -19.563
    endloop
  endfacet
  facet normal 2.20828e-16 -0.104528 -0.994522
    outer loop
      vertex 4 -4.15823 -19.563
      vertex 4.44089e-15 3.14018e-15 -20
      vertex 4 3.14018e-15 -20
    endloop
  endfacet
  facet normal 2.20828e-16 0.104528 -0.994522
    outer loop
      vertex 4.34385e-15 4.15823 -19.563
      vertex 4 4.15823 -19.563
      vertex 4.44089e-15 3.14018e-15 -20
    endloop
  endfacet
  facet normal 2.20828e-16 0.104528 -0.994522
    outer loop
      vertex 4.44089e-15 3.14018e-15 -20
      vertex 4 4.15823 -19.563
      vertex 4 3.14018e-15 -20
    endloop
  endfacet
  facet normal 2.11177e-16 0.309017 -0.951057
    outer loop
      vertex 4.05696e-15 8.13473 -18.2709
      vertex 4 8.13473 -18.2709
      vertex 4.34385e-15 4.15823 -19.563
    endloop
  endfacet
  facet normal 2.11177e-16 0.309017 -0.951057
    outer loop
      vertex 4.34385e-15 4.15823 -19.563
      vertex 4 8.13473 -18.2709
      vertex 4 4.15823 -19.563
    endloop
  endfacet
  facet normal 1.92296e-16 0.5 -0.866025
    outer loop
      vertex 3.59276e-15 11.7557 -16.1803
      vertex 4 11.7557 -16.1803
      vertex 4.05696e-15 8.13473 -18.2709
    endloop
  endfacet
  facet normal 1.92296e-16 0.5 -0.866025
    outer loop
      vertex 4.05696e-15 8.13473 -18.2709
      vertex 4 11.7557 -16.1803
      vertex 4 8.13473 -18.2709
    endloop
  endfacet
  facet normal 1.65011e-16 0.669131 -0.743145
    outer loop
      vertex 2.97154e-15 14.8629 -13.3826
      vertex 4 14.8629 -13.3826
      vertex 3.59276e-15 11.7557 -16.1803
    endloop
  endfacet
  facet normal 1.65011e-16 0.669131 -0.743145
    outer loop
      vertex 3.59276e-15 11.7557 -16.1803
      vertex 4 14.8629 -13.3826
      vertex 4 11.7557 -16.1803
    endloop
  endfacet
  facet normal 1.30515e-16 0.809017 -0.587785
    outer loop
      vertex 2.22045e-15 17.3205 -10
      vertex 4 17.3205 -10
      vertex 2.97154e-15 14.8629 -13.3826
    endloop
  endfacet
  facet normal 1.30515e-16 0.809017 -0.587785
    outer loop
      vertex 2.97154e-15 14.8629 -13.3826
      vertex 4 17.3205 -10
      vertex 4 14.8629 -13.3826
    endloop
  endfacet
  facet normal 9.03137e-17 0.913545 -0.406737
    outer loop
      vertex 1.37231e-15 19.0211 -6.18034
      vertex 4 19.0211 -6.18034
      vertex 2.22045e-15 17.3205 -10
    endloop
  endfacet
  facet normal 9.03137e-17 0.913545 -0.406737
    outer loop
      vertex 2.22045e-15 17.3205 -10
      vertex 4 19.0211 -6.18034
      vertex 4 17.3205 -10
    endloop
  endfacet
  facet normal 4.61657e-17 0.978148 -0.207912
    outer loop
      vertex 4.642e-16 19.8904 -2.09057
      vertex 4 19.8904 -2.09057
      vertex 1.37231e-15 19.0211 -6.18034
    endloop
  endfacet
  facet normal 4.61657e-17 0.978148 -0.207912
    outer loop
      vertex 1.37231e-15 19.0211 -6.18034
      vertex 4 19.8904 -2.09057
      vertex 4 19.0211 -6.18034
    endloop
  endfacet
  facet normal -3.48631e-32 1 1.57009e-16
    outer loop
      vertex -4.642e-16 19.8904 2.09057
      vertex 4 19.8904 2.09057
      vertex 4.642e-16 19.8904 -2.09057
    endloop
  endfacet
  facet normal -3.48631e-32 1 1.57009e-16
    outer loop
      vertex 4.642e-16 19.8904 -2.09057
      vertex 4 19.8904 2.09057
      vertex 4 19.8904 -2.09057
    endloop
  endfacet
  facet normal -4.61657e-17 0.978148 0.207912
    outer loop
      vertex -1.37231e-15 19.0211 6.18034
      vertex 4 19.0211 6.18034
      vertex -4.642e-16 19.8904 2.09057
    endloop
  endfacet
  facet normal -4.61657e-17 0.978148 0.207912
    outer loop
      vertex -4.642e-16 19.8904 2.09057
      vertex 4 19.0211 6.18034
      vertex 4 19.8904 2.09057
    endloop
  endfacet
  facet normal -9.03137e-17 0.913545 0.406737
    outer loop
      vertex -2.22045e-15 17.3205 10
      vertex 4 17.3205 10
      vertex -1.37231e-15 19.0211 6.18034
    endloop
  endfacet
  facet normal -9.03137e-17 0.913545 0.406737
    outer loop
      vertex -1.37231e-15 19.0211 6.18034
      vertex 4 17.3205 10
      vertex 4 19.0211 6.18034
    endloop
  endfacet
  facet normal -1.30515e-16 0.809017 0.587785
    outer loop
      vertex -2.97154e-15 14.8629 13.3826
      vertex 4 14.8629 13.3826
      vertex -2.22045e-15 17.3205 10
    endloop
  endfacet
  facet normal -1.30515e-16 0.809017 0.587785
    outer loop
      vertex -2.22045e-15 17.3205 10
      vertex 4 14.8629 13.3826
      vertex 4 17.3205 10
    endloop
  endfacet
  facet normal -1.65011e-16 0.669131 0.743145
    outer loop
      vertex -2.97154e-15 14.8629 13.3826
      vertex -3.59276e-15 11.7557 16.1803
      vertex 4 11.7557 16.1803
    endloop
  endfacet
  facet normal -1.65011e-16 0.669131 0.743145
    outer loop
      vertex 4 14.8629 13.3826
      vertex -2.97154e-15 14.8629 13.3826
      vertex 4 11.7557 16.1803
    endloop
  endfacet
  facet normal -1.92296e-16 0.5 0.866025
    outer loop
      vertex -3.59276e-15 11.7557 16.1803
      vertex -4.05696e-15 8.13473 18.2709
      vertex 4 8.13473 18.2709
    endloop
  endfacet
  facet normal -1.92296e-16 0.5 0.866025
    outer loop
      vertex 4 11.7557 16.1803
      vertex -3.59276e-15 11.7557 16.1803
      vertex 4 8.13473 18.2709
    endloop
  endfacet
  facet normal -2.11177e-16 0.309017 0.951057
    outer loop
      vertex -4.05696e-15 8.13473 18.2709
      vertex -4.34385e-15 4.15823 19.563
      vertex 4 4.15823 19.563
    endloop
  endfacet
  facet normal -2.11177e-16 0.309017 0.951057
    outer loop
      vertex 4 8.13473 18.2709
      vertex -4.05696e-15 8.13473 18.2709
      vertex 4 4.15823 19.563
    endloop
  endfacet
  facet normal -2.20828e-16 0.104528 0.994522
    outer loop
      vertex -4.34385e-15 4.15823 19.563
      vertex -4.44089e-15 -3.14018e-15 20
      vertex 4 -3.14018e-15 20
    endloop
  endfacet
  facet normal -2.20828e-16 0.104528 0.994522
    outer loop
      vertex 4 4.15823 19.563
      vertex -4.34385e-15 4.15823 19.563
      vertex 4 -3.14018e-15 20
    endloop
  endfacet
  facet normal 2.20828e-16 -0.104528 -0.994522
    outer loop
      vertex 3 2.70285 12.7159
      vertex 3 -2.04112e-15 13
      vertex -2.8235e-15 2.70285 12.7159
    endloop
  endfacet
  facet normal 2.20828e-16 -0.104528 -0.994522
    outer loop
      vertex -2.8235e-15 2.70285 12.7159
      vertex 3 -2.04112e-15 13
      vertex -2.88658e-15 -2.04112e-15 13
    endloop
  endfacet
  facet normal 2.20828e-16 0.104528 -0.994522
    outer loop
      vertex 3 -2.70285 12.7159
      vertex -2.8235e-15 -2.70285 12.7159
      vertex 3 -2.04112e-15 13
    endloop
  endfacet
  facet normal 2.20828e-16 0.104528 -0.994522
    outer loop
      vertex 3 -2.04112e-15 13
      vertex -2.8235e-15 -2.70285 12.7159
      vertex -2.88658e-15 -2.04112e-15 13
    endloop
  endfacet
  facet normal 2.11177e-16 -0.309017 -0.951056
    outer loop
      vertex 3 5.28758 11.8761
      vertex 3 2.70285 12.7159
      vertex -2.63702e-15 5.28758 11.8761
    endloop
  endfacet
  facet normal 2.11177e-16 -0.309017 -0.951056
    outer loop
      vertex -2.63702e-15 5.28758 11.8761
      vertex 3 2.70285 12.7159
      vertex -2.8235e-15 2.70285 12.7159
    endloop
  endfacet
  facet normal 1.92296e-16 -0.5 -0.866025
    outer loop
      vertex 3 7.64121 10.5172
      vertex 3 5.28758 11.8761
      vertex -2.33529e-15 7.64121 10.5172
    endloop
  endfacet
  facet normal 1.92296e-16 -0.5 -0.866025
    outer loop
      vertex -2.33529e-15 7.64121 10.5172
      vertex 3 5.28758 11.8761
      vertex -2.63702e-15 5.28758 11.8761
    endloop
  endfacet
  facet normal 1.65011e-16 -0.66913 -0.743145
    outer loop
      vertex 3 9.66088 8.6987
      vertex 3 7.64121 10.5172
      vertex -1.9315e-15 9.66088 8.6987
    endloop
  endfacet
  facet normal 1.65011e-16 -0.66913 -0.743145
    outer loop
      vertex -1.9315e-15 9.66088 8.6987
      vertex 3 7.64121 10.5172
      vertex -2.33529e-15 7.64121 10.5172
    endloop
  endfacet
  facet normal 1.30515e-16 -0.809017 -0.587785
    outer loop
      vertex -1.44329e-15 11.2583 6.5
      vertex 3 11.2583 6.5
      vertex 3 9.66088 8.6987
    endloop
  endfacet
  facet normal 1.30515e-16 -0.809017 -0.587785
    outer loop
      vertex -1.9315e-15 9.66088 8.6987
      vertex -1.44329e-15 11.2583 6.5
      vertex 3 9.66088 8.6987
    endloop
  endfacet
  facet normal 9.03137e-17 -0.913545 -0.406737
    outer loop
      vertex -8.92002e-16 12.3637 4.01722
      vertex 3 12.3637 4.01722
      vertex 3 11.2583 6.5
    endloop
  endfacet
  facet normal 9.03137e-17 -0.913545 -0.406737
    outer loop
      vertex -1.44329e-15 11.2583 6.5
      vertex -8.92002e-16 12.3637 4.01722
      vertex 3 11.2583 6.5
    endloop
  endfacet
  facet normal 4.61657e-17 -0.978148 -0.207912
    outer loop
      vertex -3.0173e-16 12.9288 1.35887
      vertex 3 12.9288 1.35887
      vertex 3 12.3637 4.01722
    endloop
  endfacet
  facet normal 4.61657e-17 -0.978148 -0.207912
    outer loop
      vertex -8.92002e-16 12.3637 4.01722
      vertex -3.0173e-16 12.9288 1.35887
      vertex 3 12.3637 4.01722
    endloop
  endfacet
  facet normal 3.48631e-32 -1 -1.57009e-16
    outer loop
      vertex 3.0173e-16 12.9288 -1.35887
      vertex 3 12.9288 -1.35887
      vertex 3 12.9288 1.35887
    endloop
  endfacet
  facet normal 3.48631e-32 -1 -1.57009e-16
    outer loop
      vertex -3.0173e-16 12.9288 1.35887
      vertex 3.0173e-16 12.9288 -1.35887
      vertex 3 12.9288 1.35887
    endloop
  endfacet
  facet normal -4.61657e-17 -0.978148 0.207912
    outer loop
      vertex 8.92002e-16 12.3637 -4.01722
      vertex 3 12.3637 -4.01722
      vertex 3 12.9288 -1.35887
    endloop
  endfacet
  facet normal -4.61657e-17 -0.978148 0.207912
    outer loop
      vertex 3.0173e-16 12.9288 -1.35887
      vertex 8.92002e-16 12.3637 -4.01722
      vertex 3 12.9288 -1.35887
    endloop
  endfacet
  facet normal -9.03137e-17 -0.913545 0.406737
    outer loop
      vertex 1.44329e-15 11.2583 -6.5
      vertex 3 11.2583 -6.5
      vertex 3 12.3637 -4.01722
    endloop
  endfacet
  facet normal -9.03137e-17 -0.913545 0.406737
    outer loop
      vertex 8.92002e-16 12.3637 -4.01722
      vertex 1.44329e-15 11.2583 -6.5
      vertex 3 12.3637 -4.01722
    endloop
  endfacet
  facet normal -1.30515e-16 -0.809017 0.587785
    outer loop
      vertex 1.9315e-15 9.66088 -8.6987
      vertex 3 9.66088 -8.6987
      vertex 3 11.2583 -6.5
    endloop
  endfacet
  facet normal -1.30515e-16 -0.809017 0.587785
    outer loop
      vertex 1.44329e-15 11.2583 -6.5
      vertex 1.9315e-15 9.66088 -8.6987
      vertex 3 11.2583 -6.5
    endloop
  endfacet
  facet normal -1.65011e-16 -0.66913 0.743145
    outer loop
      vertex 2.33529e-15 7.64121 -10.5172
      vertex 3 7.64121 -10.5172
      vertex 3 9.66088 -8.6987
    endloop
  endfacet
  facet normal -1.65011e-16 -0.66913 0.743145
    outer loop
      vertex 1.9315e-15 9.66088 -8.6987
      vertex 2.33529e-15 7.64121 -10.5172
      vertex 3 9.66088 -8.6987
    endloop
  endfacet
  facet normal -1.92296e-16 -0.5 0.866025
    outer loop
      vertex 2.63702e-15 5.28758 -11.8761
      vertex 3 5.28758 -11.8761
      vertex 3 7.64121 -10.5172
    endloop
  endfacet
  facet normal -1.92296e-16 -0.5 0.866025
    outer loop
      vertex 2.33529e-15 7.64121 -10.5172
      vertex 2.63702e-15 5.28758 -11.8761
      vertex 3 7.64121 -10.5172
    endloop
  endfacet
  facet normal -2.11177e-16 -0.309017 0.951056
    outer loop
      vertex 2.8235e-15 2.70285 -12.7159
      vertex 3 2.70285 -12.7159
      vertex 3 5.28758 -11.8761
    endloop
  endfacet
  facet normal -2.11177e-16 -0.309017 0.951056
    outer loop
      vertex 2.63702e-15 5.28758 -11.8761
      vertex 2.8235e-15 2.70285 -12.7159
      vertex 3 5.28758 -11.8761
    endloop
  endfacet
  facet normal -2.20828e-16 -0.104528 0.994522
    outer loop
      vertex 2.88658e-15 2.04112e-15 -13
      vertex 3 2.04112e-15 -13
      vertex 3 2.70285 -12.7159
    endloop
  endfacet
  facet normal -2.20828e-16 -0.104528 0.994522
    outer loop
      vertex 2.8235e-15 2.70285 -12.7159
      vertex 2.88658e-15 2.04112e-15 -13
      vertex 3 2.70285 -12.7159
    endloop
  endfacet
  facet normal -2.20828e-16 0.104528 0.994522
    outer loop
      vertex 3 -2.70285 -12.7159
      vertex 3 2.04112e-15 -13
      vertex 2.88658e-15 2.04112e-15 -13
    endloop
  endfacet
  facet normal -2.20828e-16 0.104528 0.994522
    outer loop
      vertex 2.8235e-15 -2.70285 -12.7159
      vertex 3 -2.70285 -12.7159
      vertex 2.88658e-15 2.04112e-15 -13
    endloop
  endfacet
  facet normal -2.11177e-16 0.309017 0.951056
    outer loop
      vertex 3 -5.28758 -11.8761
      vertex 3 -2.70285 -12.7159
      vertex 2.8235e-15 -2.70285 -12.7159
    endloop
  endfacet
  facet normal -2.11177e-16 0.309017 0.951056
    outer loop
      vertex 2.63702e-15 -5.28758 -11.8761
      vertex 3 -5.28758 -11.8761
      vertex 2.8235e-15 -2.70285 -12.7159
    endloop
  endfacet
  facet normal -1.92296e-16 0.5 0.866025
    outer loop
      vertex 3 -7.64121 -10.5172
      vertex 3 -5.28758 -11.8761
      vertex 2.63702e-15 -5.28758 -11.8761
    endloop
  endfacet
  facet normal -1.92296e-16 0.5 0.866025
    outer loop
      vertex 2.33529e-15 -7.64121 -10.5172
      vertex 3 -7.64121 -10.5172
      vertex 2.63702e-15 -5.28758 -11.8761
    endloop
  endfacet
  facet normal -1.65011e-16 0.66913 0.743145
    outer loop
      vertex 3 -9.66088 -8.6987
      vertex 3 -7.64121 -10.5172
      vertex 2.33529e-15 -7.64121 -10.5172
    endloop
  endfacet
  facet normal -1.65011e-16 0.66913 0.743145
    outer loop
      vertex 1.9315e-15 -9.66088 -8.6987
      vertex 3 -9.66088 -8.6987
      vertex 2.33529e-15 -7.64121 -10.5172
    endloop
  endfacet
  facet normal -1.30515e-16 0.809017 0.587785
    outer loop
      vertex 3 -9.66088 -8.6987
      vertex 1.9315e-15 -9.66088 -8.6987
      vertex 3 -11.2583 -6.5
    endloop
  endfacet
  facet normal -1.30515e-16 0.809017 0.587785
    outer loop
      vertex 3 -11.2583 -6.5
      vertex 1.9315e-15 -9.66088 -8.6987
      vertex 1.44329e-15 -11.2583 -6.5
    endloop
  endfacet
  facet normal -9.03137e-17 0.913545 0.406737
    outer loop
      vertex 3 -11.2583 -6.5
      vertex 1.44329e-15 -11.2583 -6.5
      vertex 3 -12.3637 -4.01722
    endloop
  endfacet
  facet normal -9.03137e-17 0.913545 0.406737
    outer loop
      vertex 3 -12.3637 -4.01722
      vertex 1.44329e-15 -11.2583 -6.5
      vertex 8.92002e-16 -12.3637 -4.01722
    endloop
  endfacet
  facet normal -4.61657e-17 0.978148 0.207912
    outer loop
      vertex 3 -12.3637 -4.01722
      vertex 8.92002e-16 -12.3637 -4.01722
      vertex 3 -12.9288 -1.35887
    endloop
  endfacet
  facet normal -4.61657e-17 0.978148 0.207912
    outer loop
      vertex 3 -12.9288 -1.35887
      vertex 8.92002e-16 -12.3637 -4.01722
      vertex 3.0173e-16 -12.9288 -1.35887
    endloop
  endfacet
  facet normal -3.48631e-32 1 1.57009e-16
    outer loop
      vertex 3 -12.9288 -1.35887
      vertex 3.0173e-16 -12.9288 -1.35887
      vertex 3 -12.9288 1.35887
    endloop
  endfacet
  facet normal -3.48631e-32 1 1.57009e-16
    outer loop
      vertex 3 -12.9288 1.35887
      vertex 3.0173e-16 -12.9288 -1.35887
      vertex -3.0173e-16 -12.9288 1.35887
    endloop
  endfacet
  facet normal 4.61657e-17 0.978148 -0.207912
    outer loop
      vertex 3 -12.9288 1.35887
      vertex -3.0173e-16 -12.9288 1.35887
      vertex 3 -12.3637 4.01722
    endloop
  endfacet
  facet normal 4.61657e-17 0.978148 -0.207912
    outer loop
      vertex 3 -12.3637 4.01722
      vertex -3.0173e-16 -12.9288 1.35887
      vertex -8.92002e-16 -12.3637 4.01722
    endloop
  endfacet
  facet normal 9.03137e-17 0.913545 -0.406737
    outer loop
      vertex 3 -12.3637 4.01722
      vertex -8.92002e-16 -12.3637 4.01722
      vertex 3 -11.2583 6.5
    endloop
  endfacet
  facet normal 9.03137e-17 0.913545 -0.406737
    outer loop
      vertex 3 -11.2583 6.5
      vertex -8.92002e-16 -12.3637 4.01722
      vertex -1.44329e-15 -11.2583 6.5
    endloop
  endfacet
  facet normal 1.30515e-16 0.809017 -0.587785
    outer loop
      vertex 3 -11.2583 6.5
      vertex -1.44329e-15 -11.2583 6.5
      vertex 3 -9.66088 8.6987
    endloop
  endfacet
  facet normal 1.30515e-16 0.809017 -0.587785
    outer loop
      vertex 3 -9.66088 8.6987
      vertex -1.44329e-15 -11.2583 6.5
      vertex -1.9315e-15 -9.66088 8.6987
    endloop
  endfacet
  facet normal 1.65011e-16 0.66913 -0.743145
    outer loop
      vertex 3 -9.66088 8.6987
      vertex -1.9315e-15 -9.66088 8.6987
      vertex 3 -7.64121 10.5172
    endloop
  endfacet
  facet normal 1.65011e-16 0.66913 -0.743145
    outer loop
      vertex 3 -7.64121 10.5172
      vertex -1.9315e-15 -9.66088 8.6987
      vertex -2.33529e-15 -7.64121 10.5172
    endloop
  endfacet
  facet normal 1.92296e-16 0.5 -0.866025
    outer loop
      vertex 3 -7.64121 10.5172
      vertex -2.33529e-15 -7.64121 10.5172
      vertex 3 -5.28758 11.8761
    endloop
  endfacet
  facet normal 1.92296e-16 0.5 -0.866025
    outer loop
      vertex 3 -5.28758 11.8761
      vertex -2.33529e-15 -7.64121 10.5172
      vertex -2.63702e-15 -5.28758 11.8761
    endloop
  endfacet
  facet normal 2.11177e-16 0.309017 -0.951056
    outer loop
      vertex 3 -5.28758 11.8761
      vertex -2.63702e-15 -5.28758 11.8761
      vertex 3 -2.70285 12.7159
    endloop
  endfacet
  facet normal 2.11177e-16 0.309017 -0.951056
    outer loop
      vertex 3 -2.70285 12.7159
      vertex -2.63702e-15 -5.28758 11.8761
      vertex -2.8235e-15 -2.70285 12.7159
    endloop
  endfacet
  facet normal 1 -3.48631e-32 2.22045e-16
    outer loop
      vertex 4 4.15823 19.563
      vertex 4 -3.14018e-15 20
      vertex 4 -4.15823 19.563
    endloop
  endfacet
  facet normal 1 -3.48631e-32 2.22045e-16
    outer loop
      vertex 4 -11.7557 16.1803
      vertex 4 4.15823 19.563
      vertex 4 -8.13473 18.2709
    endloop
  endfacet
  facet normal 1 -3.48631e-32 2.22045e-16
    outer loop
      vertex 4 -8.13473 18.2709
      vertex 4 4.15823 19.563
      vertex 4 -4.15823 19.563
    endloop
  endfacet
  facet normal 1 -3.48631e-32 2.22045e-16
    outer loop
      vertex 4 -14.8629 13.3826
      vertex 4 4.15823 19.563
      vertex 4 -11.7557 16.1803
    endloop
  endfacet
  facet normal 1 -3.48631e-32 2.22045e-16
    outer loop
      vertex 4 -17.3205 10
      vertex 4 4.15823 19.563
      vertex 4 -14.8629 13.3826
    endloop
  endfacet
  facet normal 1 -3.48631e-32 2.22045e-16
    outer loop
      vertex 4 -19.0211 6.18034
      vertex 4 4.15823 19.563
      vertex 4 -17.3205 10
    endloop
  endfacet
  facet normal 1 -3.48631e-32 2.22045e-16
    outer loop
      vertex 4 -19.8904 2.09057
      vertex 4 4.15823 19.563
      vertex 4 -19.0211 6.18034
    endloop
  endfacet
  facet normal 1 -3.48631e-32 2.22045e-16
    outer loop
      vertex 4 -19.8904 -2.09057
      vertex 4 4.15823 19.563
      vertex 4 -19.8904 2.09057
    endloop
  endfacet
  facet normal 1 -3.48631e-32 2.22045e-16
    outer loop
      vertex 4 -19.0211 -6.18034
      vertex 4 4.15823 19.563
      vertex 4 -19.8904 -2.09057
    endloop
  endfacet
  facet normal 1 -3.48631e-32 2.22045e-16
    outer loop
      vertex 4 -17.3205 -10
      vertex 4 4.15823 19.563
      vertex 4 -19.0211 -6.18034
    endloop
  endfacet
  facet normal 1 -3.48631e-32 2.22045e-16
    outer loop
      vertex 4 -6.58387 4.54452
      vertex 4 4.15823 19.563
      vertex 4 -17.3205 -10
    endloop
  endfacet
  facet normal 1 -3.48631e-32 2.22045e-16
    outer loop
      vertex 4 1.25607e-15 -8
      vertex 4 -1.91452 -7.76753
      vertex 4 -4.15823 -19.563
    endloop
  endfacet
  facet normal 1 -3.48631e-32 2.22045e-16
    outer loop
      vertex 4 14.8629 -13.3826
      vertex 4 4.15823 19.563
      vertex 4 11.7557 -16.1803
    endloop
  endfacet
  facet normal 1 -3.48631e-32 2.22045e-16
    outer loop
      vertex 4 17.3205 -10
      vertex 4 4.15823 19.563
      vertex 4 14.8629 -13.3826
    endloop
  endfacet
  facet normal 1 -3.48631e-32 2.22045e-16
    outer loop
      vertex 4 19.0211 -6.18034
      vertex 4 4.15823 19.563
      vertex 4 17.3205 -10
    endloop
  endfacet
  facet normal 1 -3.48631e-32 2.22045e-16
    outer loop
      vertex 4 19.8904 -2.09057
      vertex 4 4.15823 19.563
      vertex 4 19.0211 -6.18034
    endloop
  endfacet
  facet normal 1 -3.48631e-32 2.22045e-16
    outer loop
      vertex 4 19.8904 2.09057
      vertex 4 4.15823 19.563
      vertex 4 19.8904 -2.09057
    endloop
  endfacet
  facet normal 1 -3.48631e-32 2.22045e-16
    outer loop
      vertex 4 19.0211 6.18034
      vertex 4 4.15823 19.563
      vertex 4 19.8904 2.09057
    endloop
  endfacet
  facet normal 1 -3.48631e-32 2.22045e-16
    outer loop
      vertex 4 17.3205 10
      vertex 4 4.15823 19.563
      vertex 4 19.0211 6.18034
    endloop
  endfacet
  facet normal 1 -3.48631e-32 2.22045e-16
    outer loop
      vertex 4 14.8629 13.3826
      vertex 4 4.15823 19.563
      vertex 4 17.3205 10
    endloop
  endfacet
  facet normal 1 -3.48631e-32 2.22045e-16
    outer loop
      vertex 4 11.7557 16.1803
      vertex 4 4.15823 19.563
      vertex 4 14.8629 13.3826
    endloop
  endfacet
  facet normal 1 -3.48631e-32 2.22045e-16
    outer loop
      vertex 4 8.13473 18.2709
      vertex 4 4.15823 19.563
      vertex 4 11.7557 16.1803
    endloop
  endfacet
  facet normal 1 -3.48631e-32 2.22045e-16
    outer loop
      vertex 4 -5.30498 5.98809
      vertex 4 -3.71779 7.08365
      vertex 4 4.15823 19.563
    endloop
  endfacet
  facet normal 1 -3.48631e-32 2.22045e-16
    outer loop
      vertex 4 -6.58387 -4.54452
      vertex 4 -7.48013 -2.83684
      vertex 4 -11.7557 -16.1803
    endloop
  endfacet
  facet normal 1 -3.48631e-32 2.22045e-16
    outer loop
      vertex 4 3.71778 7.08365
      vertex 4 5.30498 5.98809
      vertex 4 4.15823 19.563
    endloop
  endfacet
  facet normal 1 -3.48631e-32 2.22045e-16
    outer loop
      vertex 4 -3.71778 -7.08365
      vertex 4 -5.30498 -5.98809
      vertex 4 -8.13473 -18.2709
    endloop
  endfacet
  facet normal 1 -3.48631e-32 2.22045e-16
    outer loop
      vertex 4 1.91453 -7.76753
      vertex 4 1.25607e-15 -8
      vertex 4 3.14018e-15 -20
    endloop
  endfacet
  facet normal 1 -3.48631e-32 2.22045e-16
    outer loop
      vertex 4 7.94167 0.964293
      vertex 4 7.94167 -0.964293
      vertex 4 11.7557 -16.1803
    endloop
  endfacet
  facet normal 1 -3.48631e-32 2.22045e-16
    outer loop
      vertex 4 6.58387 -4.54452
      vertex 4 5.30498 -5.98809
      vertex 4 8.13473 -18.2709
    endloop
  endfacet
  facet normal 1 -3.48631e-32 2.22045e-16
    outer loop
      vertex 4 7.48013 2.83684
      vertex 4 4.15823 19.563
      vertex 4 6.58387 4.54452
    endloop
  endfacet
  facet normal 1 -3.48631e-32 2.22045e-16
    outer loop
      vertex 4 7.48013 -2.83684
      vertex 4 6.58387 -4.54452
      vertex 4 8.13473 -18.2709
    endloop
  endfacet
  facet normal 1 -3.48631e-32 2.22045e-16
    outer loop
      vertex 4 7.94167 0.964293
      vertex 4 4.15823 19.563
      vertex 4 7.48013 2.83684
    endloop
  endfacet
  facet normal 1 -3.48631e-32 2.22045e-16
    outer loop
      vertex 4 5.30498 -5.98809
      vertex 4 3.71779 -7.08365
      vertex 4 4.15823 -19.563
    endloop
  endfacet
  facet normal 1 -3.48631e-32 2.22045e-16
    outer loop
      vertex 4 11.7557 -16.1803
      vertex 4 4.15823 19.563
      vertex 4 7.94167 0.964293
    endloop
  endfacet
  facet normal 1 -3.48631e-32 2.22045e-16
    outer loop
      vertex 4 11.7557 -16.1803
      vertex 4 7.94167 -0.964293
      vertex 4 8.13473 -18.2709
    endloop
  endfacet
  facet normal 1 -3.48631e-32 2.22045e-16
    outer loop
      vertex 4 7.94167 -0.964293
      vertex 4 7.48013 -2.83684
      vertex 4 8.13473 -18.2709
    endloop
  endfacet
  facet normal 1 -3.48631e-32 2.22045e-16
    outer loop
      vertex 4 8.13473 -18.2709
      vertex 4 5.30498 -5.98809
      vertex 4 4.15823 -19.563
    endloop
  endfacet
  facet normal 1 -3.48631e-32 2.22045e-16
    outer loop
      vertex 4 4.15823 -19.563
      vertex 4 3.71779 -7.08365
      vertex 4 3.14018e-15 -20
    endloop
  endfacet
  facet normal 1 -3.48631e-32 2.22045e-16
    outer loop
      vertex 4 3.71779 -7.08365
      vertex 4 1.91453 -7.76753
      vertex 4 3.14018e-15 -20
    endloop
  endfacet
  facet normal 1 -3.48631e-32 2.22045e-16
    outer loop
      vertex 4 3.14018e-15 -20
      vertex 4 1.25607e-15 -8
      vertex 4 -4.15823 -19.563
    endloop
  endfacet
  facet normal 1 -3.48631e-32 2.22045e-16
    outer loop
      vertex 4 -4.15823 -19.563
      vertex 4 -1.91452 -7.76753
      vertex 4 -8.13473 -18.2709
    endloop
  endfacet
  facet normal 1 -3.48631e-32 2.22045e-16
    outer loop
      vertex 4 1.91452 7.76753
      vertex 4 3.71778 7.08365
      vertex 4 4.15823 19.563
    endloop
  endfacet
  facet normal 1 -3.48631e-32 2.22045e-16
    outer loop
      vertex 4 -1.91452 -7.76753
      vertex 4 -3.71778 -7.08365
      vertex 4 -8.13473 -18.2709
    endloop
  endfacet
  facet normal 1 -3.48631e-32 2.22045e-16
    outer loop
      vertex 4 5.30498 5.98809
      vertex 4 6.58387 4.54452
      vertex 4 4.15823 19.563
    endloop
  endfacet
  facet normal 1 -3.48631e-32 2.22045e-16
    outer loop
      vertex 4 -8.13473 -18.2709
      vertex 4 -5.30498 -5.98809
      vertex 4 -11.7557 -16.1803
    endloop
  endfacet
  facet normal 1 -3.48631e-32 2.22045e-16
    outer loop
      vertex 4 -7.48013 -2.83684
      vertex 4 -7.94167 -0.964293
      vertex 4 -14.8629 -13.3826
    endloop
  endfacet
  facet normal 1 -3.48631e-32 2.22045e-16
    outer loop
      vertex 4 -11.7557 -16.1803
      vertex 4 -7.48013 -2.83684
      vertex 4 -14.8629 -13.3826
    endloop
  endfacet
  facet normal 1 -3.48631e-32 2.22045e-16
    outer loop
      vertex 4 -14.8629 -13.3826
      vertex 4 -7.94167 -0.964293
      vertex 4 -17.3205 -10
    endloop
  endfacet
  facet normal 1 -3.48631e-32 2.22045e-16
    outer loop
      vertex 4 -7.94167 -0.964293
      vertex 4 -7.94167 0.964293
      vertex 4 -17.3205 -10
    endloop
  endfacet
  facet normal 1 -3.48631e-32 2.22045e-16
    outer loop
      vertex 4 -7.94167 0.964293
      vertex 4 -7.48013 2.83684
      vertex 4 -17.3205 -10
    endloop
  endfacet
  facet normal 1 -3.48631e-32 2.22045e-16
    outer loop
      vertex 4 -7.48013 2.83684
      vertex 4 -6.58387 4.54452
      vertex 4 -17.3205 -10
    endloop
  endfacet
  facet normal 1 -3.48631e-32 2.22045e-16
    outer loop
      vertex 4 -5.30498 5.98809
      vertex 4 4.15823 19.563
      vertex 4 -6.58387 4.54452
    endloop
  endfacet
  facet normal 1 -3.48631e-32 2.22045e-16
    outer loop
      vertex 4 -1.91453 7.76753
      vertex 4 -1.25607e-15 8
      vertex 4 4.15823 19.563
    endloop
  endfacet
  facet normal 1 -3.48631e-32 2.22045e-16
    outer loop
      vertex 4 -3.71779 7.08365
      vertex 4 -1.91453 7.76753
      vertex 4 4.15823 19.563
    endloop
  endfacet
  facet normal 1 -3.48631e-32 2.22045e-16
    outer loop
      vertex 4 -5.30498 -5.98809
      vertex 4 -6.58387 -4.54452
      vertex 4 -11.7557 -16.1803
    endloop
  endfacet
  facet normal 1 -3.48631e-32 2.22045e-16
    outer loop
      vertex 4 -1.25607e-15 8
      vertex 4 1.91452 7.76753
      vertex 4 4.15823 19.563
    endloop
  endfacet
  facet normal -1 3.48631e-32 -2.22045e-16
    outer loop
      vertex 3 5.28758 11.8761
      vertex 3 7.64121 10.5172
      vertex 3 2.70285 12.7159
    endloop
  endfacet
  facet normal -1 3.48631e-32 -2.22045e-16
    outer loop
      vertex 3 2.70285 12.7159
      vertex 3 7.64121 10.5172
      vertex 3 9.66088 8.6987
    endloop
  endfacet
  facet normal -1 3.48631e-32 -2.22045e-16
    outer loop
      vertex 3 2.70285 12.7159
      vertex 3 9.66088 8.6987
      vertex 3 11.2583 6.5
    endloop
  endfacet
  facet normal -1 3.48631e-32 -2.22045e-16
    outer loop
      vertex 3 2.70285 12.7159
      vertex 3 11.2583 6.5
      vertex 3 12.3637 4.01722
    endloop
  endfacet
  facet normal -1 3.48631e-32 -2.22045e-16
    outer loop
      vertex 3 2.70285 12.7159
      vertex 3 12.3637 4.01722
      vertex 3 12.9288 1.35887
    endloop
  endfacet
  facet normal -1 3.48631e-32 -2.22045e-16
    outer loop
      vertex 3 2.70285 12.7159
      vertex 3 12.9288 1.35887
      vertex 3 12.9288 -1.35887
    endloop
  endfacet
  facet normal -1 3.48631e-32 -2.22045e-16
    outer loop
      vertex 3 2.70285 12.7159
      vertex 3 12.9288 -1.35887
      vertex 3 12.3637 -4.01722
    endloop
  endfacet
  facet normal -1 3.48631e-32 -2.22045e-16
    outer loop
      vertex 3 7.94167 0.964293
      vertex 3 12.3637 -4.01722
      vertex 3 11.2583 -6.5
    endloop
  endfacet
  facet normal -1 3.48631e-32 -2.22045e-16
    outer loop
      vertex 3 7.94167 -0.964293
      vertex 3 11.2583 -6.5
      vertex 3 9.66088 -8.6987
    endloop
  endfacet
  facet normal -1 3.48631e-32 -2.22045e-16
    outer loop
      vertex 3 6.58387 -4.54452
      vertex 3 9.66088 -8.6987
      vertex 3 7.64121 -10.5172
    endloop
  endfacet
  facet normal -1 3.48631e-32 -2.22045e-16
    outer loop
      vertex 3 5.30498 -5.98809
      vertex 3 7.64121 -10.5172
      vertex 3 5.28758 -11.8761
    endloop
  endfacet
  facet normal -1 3.48631e-32 -2.22045e-16
    outer loop
      vertex 3 3.71779 -7.08365
      vertex 3 5.28758 -11.8761
      vertex 3 2.70285 -12.7159
    endloop
  endfacet
  facet normal -1 3.48631e-32 -2.22045e-16
    outer loop
      vertex 3 1.91453 -7.76753
      vertex 3 2.70285 -12.7159
      vertex 3 2.04112e-15 -13
    endloop
  endfacet
  facet normal -1 3.48631e-32 -2.22045e-16
    outer loop
      vertex 3 1.25607e-15 -8
      vertex 3 2.04112e-15 -13
      vertex 3 -2.70285 -12.7159
    endloop
  endfacet
  facet normal -1 3.48631e-32 -2.22045e-16
    outer loop
      vertex 3 -3.71778 -7.08365
      vertex 3 -2.70285 -12.7159
      vertex 3 -5.28758 -11.8761
    endloop
  endfacet
  facet normal -1 3.48631e-32 -2.22045e-16
    outer loop
      vertex 3 -5.30498 -5.98809
      vertex 3 -5.28758 -11.8761
      vertex 3 -7.64121 -10.5172
    endloop
  endfacet
  facet normal -1 3.48631e-32 -2.22045e-16
    outer loop
      vertex 3 -6.58387 -4.54452
      vertex 3 -7.64121 -10.5172
      vertex 3 -9.66088 -8.6987
    endloop
  endfacet
  facet normal -1 3.48631e-32 -2.22045e-16
    outer loop
      vertex 3 -7.48013 -2.83684
      vertex 3 -9.66088 -8.6987
      vertex 3 -11.2583 -6.5
    endloop
  endfacet
  facet normal -1 3.48631e-32 -2.22045e-16
    outer loop
      vertex 3 -7.94167 -0.964293
      vertex 3 -11.2583 -6.5
      vertex 3 -12.3637 -4.01722
    endloop
  endfacet
  facet normal -1 3.48631e-32 -2.22045e-16
    outer loop
      vertex 3 -7.48013 2.83684
      vertex 3 -12.3637 -4.01722
      vertex 3 -12.9288 -1.35887
    endloop
  endfacet
  facet normal -1 3.48631e-32 -2.22045e-16
    outer loop
      vertex 3 -5.30498 5.98809
      vertex 3 -12.9288 -1.35887
      vertex 3 -12.9288 1.35887
    endloop
  endfacet
  facet normal -1 3.48631e-32 -2.22045e-16
    outer loop
      vertex 3 2.70285 12.7159
      vertex 3 -12.9288 1.35887
      vertex 3 -12.3637 4.01722
    endloop
  endfacet
  facet normal -1 3.48631e-32 -2.22045e-16
    outer loop
      vertex 3 2.70285 12.7159
      vertex 3 -12.3637 4.01722
      vertex 3 -11.2583 6.5
    endloop
  endfacet
  facet normal -1 3.48631e-32 -2.22045e-16
    outer loop
      vertex 3 2.70285 12.7159
      vertex 3 -11.2583 6.5
      vertex 3 -9.66088 8.6987
    endloop
  endfacet
  facet normal -1 3.48631e-32 -2.22045e-16
    outer loop
      vertex 3 2.70285 12.7159
      vertex 3 -9.66088 8.6987
      vertex 3 -7.64121 10.5172
    endloop
  endfacet
  facet normal -1 3.48631e-32 -2.22045e-16
    outer loop
      vertex 3 2.70285 12.7159
      vertex 3 -7.64121 10.5172
      vertex 3 -5.28758 11.8761
    endloop
  endfacet
  facet normal -1 3.48631e-32 -2.22045e-16
    outer loop
      vertex 3 2.70285 12.7159
      vertex 3 -5.28758 11.8761
      vertex 3 -2.70285 12.7159
    endloop
  endfacet
  facet normal -1 3.48631e-32 -2.22045e-16
    outer loop
      vertex 3 2.70285 12.7159
      vertex 3 -2.70285 12.7159
      vertex 3 -2.04112e-15 13
    endloop
  endfacet
  facet normal -1 3.48631e-32 -2.22045e-16
    outer loop
      vertex 3 -7.94167 -0.964293
      vertex 3 -12.3637 -4.01722
      vertex 3 -7.94167 0.964293
    endloop
  endfacet
  facet normal -1 3.48631e-32 -2.22045e-16
    outer loop
      vertex 3 -7.48013 2.83684
      vertex 3 -12.9288 -1.35887
      vertex 3 -6.58387 4.54452
    endloop
  endfacet
  facet normal -1 3.48631e-32 -2.22045e-16
    outer loop
      vertex 3 2.70285 12.7159
      vertex 3 -3.71779 7.08365
      vertex 3 -12.9288 1.35887
    endloop
  endfacet
  facet normal -1 3.48631e-32 -2.22045e-16
    outer loop
      vertex 3 -6.58387 4.54452
      vertex 3 -12.9288 -1.35887
      vertex 3 -5.30498 5.98809
    endloop
  endfacet
  facet normal -1 3.48631e-32 -2.22045e-16
    outer loop
      vertex 3 -3.71779 7.08365
      vertex 3 -5.30498 5.98809
      vertex 3 -12.9288 1.35887
    endloop
  endfacet
  facet normal -1 3.48631e-32 -2.22045e-16
    outer loop
      vertex 3 -7.94167 0.964293
      vertex 3 -12.3637 -4.01722
      vertex 3 -7.48013 2.83684
    endloop
  endfacet
  facet normal -1 3.48631e-32 -2.22045e-16
    outer loop
      vertex 3 -3.71779 7.08365
      vertex 3 2.70285 12.7159
      vertex 3 -1.91453 7.76753
    endloop
  endfacet
  facet normal -1 3.48631e-32 -2.22045e-16
    outer loop
      vertex 3 -5.30498 -5.98809
      vertex 3 -7.64121 -10.5172
      vertex 3 -6.58387 -4.54452
    endloop
  endfacet
  facet normal -1 3.48631e-32 -2.22045e-16
    outer loop
      vertex 3 -3.71778 -7.08365
      vertex 3 -5.28758 -11.8761
      vertex 3 -5.30498 -5.98809
    endloop
  endfacet
  facet normal -1 3.48631e-32 -2.22045e-16
    outer loop
      vertex 3 -1.91452 -7.76753
      vertex 3 -2.70285 -12.7159
      vertex 3 -3.71778 -7.08365
    endloop
  endfacet
  facet normal -1 3.48631e-32 -2.22045e-16
    outer loop
      vertex 3 1.25607e-15 -8
      vertex 3 -2.70285 -12.7159
      vertex 3 -1.91452 -7.76753
    endloop
  endfacet
  facet normal -1 3.48631e-32 -2.22045e-16
    outer loop
      vertex 3 1.91453 -7.76753
      vertex 3 2.04112e-15 -13
      vertex 3 1.25607e-15 -8
    endloop
  endfacet
  facet normal -1 3.48631e-32 -2.22045e-16
    outer loop
      vertex 3 3.71779 -7.08365
      vertex 3 2.70285 -12.7159
      vertex 3 1.91453 -7.76753
    endloop
  endfacet
  facet normal -1 3.48631e-32 -2.22045e-16
    outer loop
      vertex 3 1.91452 7.76753
      vertex 3 2.70285 12.7159
      vertex 3 3.71778 7.08365
    endloop
  endfacet
  facet normal -1 3.48631e-32 -2.22045e-16
    outer loop
      vertex 3 5.30498 -5.98809
      vertex 3 5.28758 -11.8761
      vertex 3 3.71779 -7.08365
    endloop
  endfacet
  facet normal -1 3.48631e-32 -2.22045e-16
    outer loop
      vertex 3 6.58387 -4.54452
      vertex 3 7.64121 -10.5172
      vertex 3 5.30498 -5.98809
    endloop
  endfacet
  facet normal -1 3.48631e-32 -2.22045e-16
    outer loop
      vertex 3 7.48013 -2.83684
      vertex 3 9.66088 -8.6987
      vertex 3 6.58387 -4.54452
    endloop
  endfacet
  facet normal -1 3.48631e-32 -2.22045e-16
    outer loop
      vertex 3 7.94167 -0.964293
      vertex 3 9.66088 -8.6987
      vertex 3 7.48013 -2.83684
    endloop
  endfacet
  facet normal -1 3.48631e-32 -2.22045e-16
    outer loop
      vertex 3 3.71778 7.08365
      vertex 3 2.70285 12.7159
      vertex 3 5.30498 5.98809
    endloop
  endfacet
  facet normal -1 3.48631e-32 -2.22045e-16
    outer loop
      vertex 3 7.94167 0.964293
      vertex 3 11.2583 -6.5
      vertex 3 7.94167 -0.964293
    endloop
  endfacet
  facet normal -1 3.48631e-32 -2.22045e-16
    outer loop
      vertex 3 7.48013 2.83684
      vertex 3 12.3637 -4.01722
      vertex 3 7.94167 0.964293
    endloop
  endfacet
  facet normal -1 3.48631e-32 -2.22045e-16
    outer loop
      vertex 3 5.30498 5.98809
      vertex 3 2.70285 12.7159
      vertex 3 6.58387 4.54452
    endloop
  endfacet
  facet normal -1 3.48631e-32 -2.22045e-16
    outer loop
      vertex 3 2.70285 12.7159
      vertex 3 12.3637 -4.01722
      vertex 3 7.48013 2.83684
    endloop
  endfacet
  facet normal -1 3.48631e-32 -2.22045e-16
    outer loop
      vertex 3 2.70285 12.7159
      vertex 3 7.48013 2.83684
      vertex 3 6.58387 4.54452
    endloop
  endfacet
  facet normal -1 3.48631e-32 -2.22045e-16
    outer loop
      vertex 3 -1.25607e-15 8
      vertex 3 2.70285 12.7159
      vertex 3 1.91452 7.76753
    endloop
  endfacet
  facet normal -1 3.48631e-32 -2.22045e-16
    outer loop
      vertex 3 -1.91453 7.76753
      vertex 3 2.70285 12.7159
      vertex 3 -1.25607e-15 8
    endloop
  endfacet
  facet normal -1 3.48631e-32 -2.22045e-16
    outer loop
      vertex 3 -6.58387 -4.54452
      vertex 3 -9.66088 -8.6987
      vertex 3 -7.48013 -2.83684
    endloop
  endfacet
  facet normal -1 3.48631e-32 -2.22045e-16
    outer loop
      vertex 3 -7.48013 -2.83684
      vertex 3 -11.2583 -6.5
      vertex 3 -7.94167 -0.964293
    endloop
  endfacet
  facet normal 2.20426e-16 0.120536 -0.992709
    outer loop
      vertex 4 -1.91453 7.76753
      vertex 3 -1.91453 7.76753
      vertex 4 -1.25607e-15 8
    endloop
  endfacet
  facet normal 2.20426e-16 0.120536 -0.992709
    outer loop
      vertex 4 -1.25607e-15 8
      vertex 3 -1.91453 7.76753
      vertex 3 -1.25607e-15 8
    endloop
  endfacet
  facet normal 2.07615e-16 0.354605 -0.935016
    outer loop
      vertex 4 -3.71779 7.08365
      vertex 3 -3.71779 7.08365
      vertex 4 -1.91453 7.76753
    endloop
  endfacet
  facet normal 2.07615e-16 0.354605 -0.935016
    outer loop
      vertex 4 -1.91453 7.76753
      vertex 3 -3.71779 7.08365
      vertex 3 -1.91453 7.76753
    endloop
  endfacet
  facet normal 1.82739e-16 0.568065 -0.822984
    outer loop
      vertex 4 -5.30498 5.98809
      vertex 3 -5.30498 5.98809
      vertex 4 -3.71779 7.08365
    endloop
  endfacet
  facet normal 1.82739e-16 0.568065 -0.822984
    outer loop
      vertex 4 -3.71779 7.08365
      vertex 3 -5.30498 5.98809
      vertex 3 -3.71779 7.08365
    endloop
  endfacet
  facet normal 1.47243e-16 0.748511 -0.663123
    outer loop
      vertex 4 -6.58387 4.54452
      vertex 3 -6.58387 4.54452
      vertex 4 -5.30498 5.98809
    endloop
  endfacet
  facet normal 1.47243e-16 0.748511 -0.663123
    outer loop
      vertex 4 -5.30498 5.98809
      vertex 3 -6.58387 4.54452
      vertex 3 -5.30498 5.98809
    endloop
  endfacet
  facet normal 1.03189e-16 0.885456 -0.464723
    outer loop
      vertex 4 -7.48013 2.83684
      vertex 3 -7.48013 2.83684
      vertex 4 -6.58387 4.54452
    endloop
  endfacet
  facet normal 1.03189e-16 0.885456 -0.464723
    outer loop
      vertex 4 -6.58387 4.54452
      vertex 3 -7.48013 2.83684
      vertex 3 -6.58387 4.54452
    endloop
  endfacet
  facet normal 5.31387e-17 0.970942 -0.239316
    outer loop
      vertex 4 -7.94167 0.964293
      vertex 3 -7.94167 0.964293
      vertex 4 -7.48013 2.83684
    endloop
  endfacet
  facet normal 5.31387e-17 0.970942 -0.239316
    outer loop
      vertex 4 -7.48013 2.83684
      vertex 3 -7.94167 0.964293
      vertex 3 -7.48013 2.83684
    endloop
  endfacet
  facet normal -3.48631e-32 1 1.57009e-16
    outer loop
      vertex 4 -7.94167 -0.964293
      vertex 3 -7.94167 -0.964293
      vertex 4 -7.94167 0.964293
    endloop
  endfacet
  facet normal -3.48631e-32 1 1.57009e-16
    outer loop
      vertex 4 -7.94167 0.964293
      vertex 3 -7.94167 -0.964293
      vertex 3 -7.94167 0.964293
    endloop
  endfacet
  facet normal -5.31387e-17 0.970942 0.239316
    outer loop
      vertex 4 -7.48013 -2.83684
      vertex 3 -7.48013 -2.83684
      vertex 4 -7.94167 -0.964293
    endloop
  endfacet
  facet normal -5.31387e-17 0.970942 0.239316
    outer loop
      vertex 4 -7.94167 -0.964293
      vertex 3 -7.48013 -2.83684
      vertex 3 -7.94167 -0.964293
    endloop
  endfacet
  facet normal -1.03189e-16 0.885456 0.464723
    outer loop
      vertex 4 -6.58387 -4.54452
      vertex 3 -6.58387 -4.54452
      vertex 4 -7.48013 -2.83684
    endloop
  endfacet
  facet normal -1.03189e-16 0.885456 0.464723
    outer loop
      vertex 4 -7.48013 -2.83684
      vertex 3 -6.58387 -4.54452
      vertex 3 -7.48013 -2.83684
    endloop
  endfacet
  facet normal -1.47243e-16 0.748511 0.663123
    outer loop
      vertex 4 -5.30498 -5.98809
      vertex 3 -5.30498 -5.98809
      vertex 4 -6.58387 -4.54452
    endloop
  endfacet
  facet normal -1.47243e-16 0.748511 0.663123
    outer loop
      vertex 4 -6.58387 -4.54452
      vertex 3 -5.30498 -5.98809
      vertex 3 -6.58387 -4.54452
    endloop
  endfacet
  facet normal -1.82739e-16 0.568065 0.822984
    outer loop
      vertex 4 -5.30498 -5.98809
      vertex 4 -3.71778 -7.08365
      vertex 3 -3.71778 -7.08365
    endloop
  endfacet
  facet normal -1.82739e-16 0.568065 0.822984
    outer loop
      vertex 3 -5.30498 -5.98809
      vertex 4 -5.30498 -5.98809
      vertex 3 -3.71778 -7.08365
    endloop
  endfacet
  facet normal -2.07615e-16 0.354605 0.935016
    outer loop
      vertex 4 -3.71778 -7.08365
      vertex 4 -1.91452 -7.76753
      vertex 3 -1.91452 -7.76753
    endloop
  endfacet
  facet normal -2.07615e-16 0.354605 0.935016
    outer loop
      vertex 3 -3.71778 -7.08365
      vertex 4 -3.71778 -7.08365
      vertex 3 -1.91452 -7.76753
    endloop
  endfacet
  facet normal -2.20426e-16 0.120536 0.992709
    outer loop
      vertex 4 -1.91452 -7.76753
      vertex 4 1.25607e-15 -8
      vertex 3 1.25607e-15 -8
    endloop
  endfacet
  facet normal -2.20426e-16 0.120536 0.992709
    outer loop
      vertex 3 -1.91452 -7.76753
      vertex 4 -1.91452 -7.76753
      vertex 3 1.25607e-15 -8
    endloop
  endfacet
  facet normal -2.20426e-16 -0.120536 0.992709
    outer loop
      vertex 3 1.25607e-15 -8
      vertex 4 1.25607e-15 -8
      vertex 4 1.91453 -7.76753
    endloop
  endfacet
  facet normal -2.20426e-16 -0.120536 0.992709
    outer loop
      vertex 3 1.91453 -7.76753
      vertex 3 1.25607e-15 -8
      vertex 4 1.91453 -7.76753
    endloop
  endfacet
  facet normal -2.07615e-16 -0.354605 0.935016
    outer loop
      vertex 3 1.91453 -7.76753
      vertex 4 1.91453 -7.76753
      vertex 4 3.71779 -7.08365
    endloop
  endfacet
  facet normal -2.07615e-16 -0.354605 0.935016
    outer loop
      vertex 3 3.71779 -7.08365
      vertex 3 1.91453 -7.76753
      vertex 4 3.71779 -7.08365
    endloop
  endfacet
  facet normal -1.82739e-16 -0.568065 0.822984
    outer loop
      vertex 3 3.71779 -7.08365
      vertex 4 3.71779 -7.08365
      vertex 4 5.30498 -5.98809
    endloop
  endfacet
  facet normal -1.82739e-16 -0.568065 0.822984
    outer loop
      vertex 3 5.30498 -5.98809
      vertex 3 3.71779 -7.08365
      vertex 4 5.30498 -5.98809
    endloop
  endfacet
  facet normal -1.47243e-16 -0.748511 0.663123
    outer loop
      vertex 3 5.30498 -5.98809
      vertex 4 5.30498 -5.98809
      vertex 4 6.58387 -4.54452
    endloop
  endfacet
  facet normal -1.47243e-16 -0.748511 0.663123
    outer loop
      vertex 3 6.58387 -4.54452
      vertex 3 5.30498 -5.98809
      vertex 4 6.58387 -4.54452
    endloop
  endfacet
  facet normal -1.03189e-16 -0.885456 0.464723
    outer loop
      vertex 3 6.58387 -4.54452
      vertex 4 6.58387 -4.54452
      vertex 4 7.48013 -2.83684
    endloop
  endfacet
  facet normal -1.03189e-16 -0.885456 0.464723
    outer loop
      vertex 3 7.48013 -2.83684
      vertex 3 6.58387 -4.54452
      vertex 4 7.48013 -2.83684
    endloop
  endfacet
  facet normal -5.31387e-17 -0.970942 0.239316
    outer loop
      vertex 3 7.48013 -2.83684
      vertex 4 7.48013 -2.83684
      vertex 4 7.94167 -0.964293
    endloop
  endfacet
  facet normal -5.31387e-17 -0.970942 0.239316
    outer loop
      vertex 3 7.94167 -0.964293
      vertex 3 7.48013 -2.83684
      vertex 4 7.94167 -0.964293
    endloop
  endfacet
  facet normal 3.48631e-32 -1 -1.57009e-16
    outer loop
      vertex 3 7.94167 -0.964293
      vertex 4 7.94167 -0.964293
      vertex 4 7.94167 0.964293
    endloop
  endfacet
  facet normal 3.48631e-32 -1 -1.57009e-16
    outer loop
      vertex 3 7.94167 0.964293
      vertex 3 7.94167 -0.964293
      vertex 4 7.94167 0.964293
    endloop
  endfacet
  facet normal 5.31387e-17 -0.970942 -0.239316
    outer loop
      vertex 3 7.94167 0.964293
      vertex 4 7.94167 0.964293
      vertex 4 7.48013 2.83684
    endloop
  endfacet
  facet normal 5.31387e-17 -0.970942 -0.239316
    outer loop
      vertex 3 7.48013 2.83684
      vertex 3 7.94167 0.964293
      vertex 4 7.48013 2.83684
    endloop
  endfacet
  facet normal 1.03189e-16 -0.885456 -0.464723
    outer loop
      vertex 3 7.48013 2.83684
      vertex 4 7.48013 2.83684
      vertex 4 6.58387 4.54452
    endloop
  endfacet
  facet normal 1.03189e-16 -0.885456 -0.464723
    outer loop
      vertex 3 6.58387 4.54452
      vertex 3 7.48013 2.83684
      vertex 4 6.58387 4.54452
    endloop
  endfacet
  facet normal 1.47243e-16 -0.748511 -0.663123
    outer loop
      vertex 3 6.58387 4.54452
      vertex 4 6.58387 4.54452
      vertex 4 5.30498 5.98809
    endloop
  endfacet
  facet normal 1.47243e-16 -0.748511 -0.663123
    outer loop
      vertex 3 5.30498 5.98809
      vertex 3 6.58387 4.54452
      vertex 4 5.30498 5.98809
    endloop
  endfacet
  facet normal 1.82739e-16 -0.568065 -0.822984
    outer loop
      vertex 4 5.30498 5.98809
      vertex 4 3.71778 7.08365
      vertex 3 5.30498 5.98809
    endloop
  endfacet
  facet normal 1.82739e-16 -0.568065 -0.822984
    outer loop
      vertex 3 5.30498 5.98809
      vertex 4 3.71778 7.08365
      vertex 3 3.71778 7.08365
    endloop
  endfacet
  facet normal 2.07615e-16 -0.354605 -0.935016
    outer loop
      vertex 4 3.71778 7.08365
      vertex 4 1.91452 7.76753
      vertex 3 3.71778 7.08365
    endloop
  endfacet
  facet normal 2.07615e-16 -0.354605 -0.935016
    outer loop
      vertex 3 3.71778 7.08365
      vertex 4 1.91452 7.76753
      vertex 3 1.91452 7.76753
    endloop
  endfacet
  facet normal 2.20426e-16 -0.120536 -0.992709
    outer loop
      vertex 4 1.91452 7.76753
      vertex 4 -1.25607e-15 8
      vertex 3 1.91452 7.76753
    endloop
  endfacet
  facet normal 2.20426e-16 -0.120536 -0.992709
    outer loop
      vertex 3 1.91452 7.76753
      vertex 4 -1.25607e-15 8
      vertex 3 -1.25607e-15 8
    endloop
  endfacet
  facet normal -2.22045e-16 -1.57009e-16 1
    outer loop
      vertex -10 18.5 2.5
      vertex -10 13.5 2.5
      vertex -2.22045e-15 13.5 2.5
    endloop
  endfacet
  facet normal -2.22045e-16 -1.57009e-16 1
    outer loop
      vertex -2.22045e-15 18.5 2.5
      vertex -10 18.5 2.5
      vertex -2.22045e-15 13.5 2.5
    endloop
  endfacet
  facet normal 3.48631e-32 -1 -1.57009e-16
    outer loop
      vertex -2.22045e-15 13.5 2.5
      vertex -10 13.5 2.5
      vertex -10 13.5 -4.5
    endloop
  endfacet
  facet normal 3.48631e-32 -1 -1.57009e-16
    outer loop
      vertex -6.66134e-16 13.5 -4.5
      vertex -2.22045e-15 13.5 2.5
      vertex -10 13.5 -4.5
    endloop
  endfacet
  facet normal -1 3.48631e-32 -2.22045e-16
    outer loop
      vertex -10 13.5 2.5
      vertex -10 18.5 2.5
      vertex -10 13.5 -4.5
    endloop
  endfacet
  facet normal -1 3.48631e-32 -2.22045e-16
    outer loop
      vertex -10 13.5 -4.5
      vertex -10 18.5 2.5
      vertex -10 18.5 -4.5
    endloop
  endfacet
  facet normal -3.48631e-32 1 1.57009e-16
    outer loop
      vertex -10 18.5 2.5
      vertex -2.22045e-15 18.5 2.5
      vertex -10 18.5 -4.5
    endloop
  endfacet
  facet normal -3.48631e-32 1 1.57009e-16
    outer loop
      vertex -10 18.5 -4.5
      vertex -2.22045e-15 18.5 2.5
      vertex -6.66134e-16 18.5 -4.5
    endloop
  endfacet
  facet normal 1 -3.48631e-32 2.22045e-16
    outer loop
      vertex -2.22045e-15 18.5 2.5
      vertex -2.22045e-15 13.5 2.5
      vertex -6.66134e-16 13.5 -4.5
    endloop
  endfacet
  facet normal 1 -3.48631e-32 2.22045e-16
    outer loop
      vertex -6.66134e-16 18.5 -4.5
      vertex -2.22045e-15 18.5 2.5
      vertex -6.66134e-16 13.5 -4.5
    endloop
  endfacet
  facet normal 2.22045e-16 1.57009e-16 -1
    outer loop
      vertex -10 13.5 -4.5
      vertex -10 18.5 -4.5
      vertex -6.66134e-16 13.5 -4.5
    endloop
  endfacet
  facet normal 2.22045e-16 1.57009e-16 -1
    outer loop
      vertex -6.66134e-16 13.5 -4.5
      vertex -10 18.5 -4.5
      vertex -6.66134e-16 18.5 -4.5
    endloop
  endfacet
  facet normal -2.22045e-16 -1.57009e-16 1
    outer loop
      vertex -15 18.5 2.5
      vertex -15 8.5 2.5
      vertex -10 8.5 2.5
    endloop
  endfacet
  facet normal -2.22045e-16 -1.57009e-16 1
    outer loop
      vertex -10 18.5 2.5
      vertex -15 18.5 2.5
      vertex -10 8.5 2.5
    endloop
  endfacet
  facet normal 3.48631e-32 -1 -1.57009e-16
    outer loop
      vertex -10 8.5 2.5
      vertex -15 8.5 2.5
      vertex -15 8.5 -4.5
    endloop
  endfacet
  facet normal 3.48631e-32 -1 -1.57009e-16
    outer loop
      vertex -10 8.5 -4.5
      vertex -10 8.5 2.5
      vertex -15 8.5 -4.5
    endloop
  endfacet
  facet normal -1 3.48631e-32 -2.22045e-16
    outer loop
      vertex -15 8.5 2.5
      vertex -15 18.5 2.5
      vertex -15 8.5 -4.5
    endloop
  endfacet
  facet normal -1 3.48631e-32 -2.22045e-16
    outer loop
      vertex -15 8.5 -4.5
      vertex -15 18.5 2.5
      vertex -15 18.5 -4.5
    endloop
  endfacet
  facet normal -3.48631e-32 1 1.57009e-16
    outer loop
      vertex -15 18.5 2.5
      vertex -10 18.5 2.5
      vertex -15 18.5 -4.5
    endloop
  endfacet
  facet normal -3.48631e-32 1 1.57009e-16
    outer loop
      vertex -15 18.5 -4.5
      vertex -10 18.5 2.5
      vertex -10 18.5 -4.5
    endloop
  endfacet
  facet normal 1 -3.48631e-32 2.22045e-16
    outer loop
      vertex -10 18.5 2.5
      vertex -10 8.5 2.5
      vertex -10 8.5 -4.5
    endloop
  endfacet
  facet normal 1 -3.48631e-32 2.22045e-16
    outer loop
      vertex -10 18.5 -4.5
      vertex -10 18.5 2.5
      vertex -10 8.5 -4.5
    endloop
  endfacet
  facet normal 2.22045e-16 1.57009e-16 -1
    outer loop
      vertex -15 8.5 -4.5
      vertex -15 18.5 -4.5
      vertex -10 8.5 -4.5
    endloop
  endfacet
  facet normal 2.22045e-16 1.57009e-16 -1
    outer loop
      vertex -10 8.5 -4.5
      vertex -15 18.5 -4.5
      vertex -10 18.5 -4.5
    endloop
  endfacet
  facet normal -2.22045e-16 -1.57009e-16 1
    outer loop
      vertex -15 3.5 19.5
      vertex -15 -3.5 19.5
      vertex -10 -3.5 19.5
    endloop
  endfacet
  facet normal -2.22045e-16 -1.57009e-16 1
    outer loop
      vertex -10 3.5 19.5
      vertex -15 3.5 19.5
      vertex -10 -3.5 19.5
    endloop
  endfacet
  facet normal 3.48631e-32 -1 -1.57009e-16
    outer loop
      vertex -10 -3.5 19.5
      vertex -15 -3.5 19.5
      vertex -15 -3.5 9.5
    endloop
  endfacet
  facet normal 3.48631e-32 -1 -1.57009e-16
    outer loop
      vertex -10 -3.5 9.5
      vertex -10 -3.5 19.5
      vertex -15 -3.5 9.5
    endloop
  endfacet
  facet normal -1 3.48631e-32 -2.22045e-16
    outer loop
      vertex -15 -3.5 19.5
      vertex -15 3.5 19.5
      vertex -15 -3.5 9.5
    endloop
  endfacet
  facet normal -1 3.48631e-32 -2.22045e-16
    outer loop
      vertex -15 -3.5 9.5
      vertex -15 3.5 19.5
      vertex -15 3.5 9.5
    endloop
  endfacet
  facet normal -3.48631e-32 1 1.57009e-16
    outer loop
      vertex -15 3.5 19.5
      vertex -10 3.5 19.5
      vertex -15 3.5 9.5
    endloop
  endfacet
  facet normal -3.48631e-32 1 1.57009e-16
    outer loop
      vertex -15 3.5 9.5
      vertex -10 3.5 19.5
      vertex -10 3.5 9.5
    endloop
  endfacet
  facet normal 1 -3.48631e-32 2.22045e-16
    outer loop
      vertex -10 3.5 19.5
      vertex -10 -3.5 19.5
      vertex -10 -3.5 9.5
    endloop
  endfacet
  facet normal 1 -3.48631e-32 2.22045e-16
    outer loop
      vertex -10 3.5 9.5
      vertex -10 3.5 19.5
      vertex -10 -3.5 9.5
    endloop
  endfacet
  facet normal 2.22045e-16 1.57009e-16 -1
    outer loop
      vertex -15 -3.5 9.5
      vertex -15 3.5 9.5
      vertex -10 -3.5 9.5
    endloop
  endfacet
  facet normal 2.22045e-16 1.57009e-16 -1
    outer loop
      vertex -10 -3.5 9.5
      vertex -15 3.5 9.5
      vertex -10 3.5 9.5
    endloop
  endfacet
endsolid OpenSCAD_Model
